<?xml version="1.0" encoding="UTF-8" standalone="no"?>
<svg width="20px" height="20px" viewBox="0 0 20 20" version="1.1" xmlns="http://www.w3.org/2000/svg" xmlns:xlink="http://www.w3.org/1999/xlink">
    <!-- Generator: sketchtool 48.2 (47327) - http://www.bohemiancoding.com/sketch -->
    <title>5F60D715-79CD-4542-97D2-2004698B835C</title>
    <desc>Created with sketchtool.</desc>
    <defs>
        <path d="M0,0.403333333 L0,4.27222222 L5.38222222,4.27222222 C5.14888889,5.52222222 4.44555556,6.58111111 3.38666667,7.29111111 L3.38666667,9.79888889 L6.61777778,9.79888889 C8.50888889,8.05888889 9.59888889,5.49444444 9.59888889,2.44888889 C9.59888889,1.74111111 9.53666667,1.05888889 9.41888889,0.403333333 L0,0.403333333 Z" id="path-1"></path>
        <path d="M0.0633333333,0.788888889 L0.0633333333,3.38 C1.70888889,6.64888889 5.09111111,8.88888889 9,8.88888889 C11.6988889,8.88888889 13.9633333,7.99333333 15.6177778,6.46555556 L12.3866667,3.95777778 C11.4911111,4.55777778 10.3455556,4.91222222 9,4.91222222 C6.39555556,4.91222222 4.19111111,3.15222222 3.40444444,0.788888889 L0.0633333333,0.788888889 Z" id="path-3"></path>
        <path d="M1.06333333,0.0644444444 C0.386666667,1.41555556 0,2.94222222 0,4.55555556 C0,6.16888889 0.386666667,7.69666667 1.06333333,9.04666667 L4.40444444,6.45555556 C4.20444444,5.85555556 4.09,5.21444444 4.09,4.55555556 C4.09,3.89777778 4.20444444,3.25555556 4.40444444,2.65555556 L4.40444444,0.0644444444 L1.06333333,0.0644444444 Z" id="path-5"></path>
        <path d="M0.0633333333,5.50888889 L3.40444444,8.1 C4.19111111,5.73666667 6.39555556,3.97777778 9,3.97777778 C10.4688889,3.97777778 11.7866667,4.48111111 12.8222222,5.47222222 L15.69,2.60444444 C13.9577778,0.991111111 11.6955556,0 9,0 C5.09111111,0 1.70888889,2.24111111 0.0633333333,5.50888889 Z" id="path-7"></path>
    </defs>
    <g id="checkout-registration-modal" stroke="none" stroke-width="1" fill="none" fill-rule="evenodd" transform="translate(-786.000000, -772.000000)">
        <g id="Group-4" transform="translate(514.000000, 730.000000)">
            <g id="google_btn-copy" transform="translate(214.000000, 28.000000)">
                <g id="Page-1" transform="translate(58.000000, 14.000000)">
                    <g id="Group-3" transform="translate(10.000000, 8.000000)">
                        <mask id="mask-2" fill="white">
                            <use xlink:href="#path-1"></use>
                        </mask>
                        <g id="Clip-2"></g>
                        <polygon id="Fill-1" fill="#3E82F1" mask="url(#mask-2)" points="-5.55555556 15.3555556 15.1555556 15.3555556 15.1555556 -5.15111111 -5.55555556 -5.15111111"></polygon>
                    </g>
                    <g id="Group-6" transform="translate(1.000000, 11.000000)">
                        <mask id="mask-4" fill="white">
                            <use xlink:href="#path-3"></use>
                        </mask>
                        <g id="Clip-5"></g>
                        <polygon id="Fill-4" fill="#32A753" mask="url(#mask-4)" points="-5.49222222 14.4444444 21.1733333 14.4444444 21.1733333 -4.76666667 -5.49222222 -4.76666667"></polygon>
                    </g>
                    <g id="Group-9" transform="translate(0.000000, 5.000000)">
                        <mask id="mask-6" fill="white">
                            <use xlink:href="#path-5"></use>
                        </mask>
                        <g id="Clip-8"></g>
                        <polygon id="Fill-7" fill="#F9BB00" mask="url(#mask-6)" points="-5.55555556 14.6022222 9.96 14.6022222 9.96 -5.49111111 -5.55555556 -5.49111111"></polygon>
                    </g>
                    <g id="Group-12" transform="translate(1.000000, 0.000000)">
                        <mask id="mask-8" fill="white">
                            <use xlink:href="#path-7"></use>
                        </mask>
                        <g id="Clip-11"></g>
                        <polygon id="Fill-10" fill="#E74133" mask="url(#mask-8)" points="-5.49222222 13.6555556 21.2455556 13.6555556 21.2455556 -5.55555556 -5.49222222 -5.55555556"></polygon>
                    </g>
                </g>
            </g>
        </g>
    </g>
</svg>